<?xml version="1.0" encoding="UTF-8"?>
<svg id="_レイヤー_1" data-name="レイヤー_1" xmlns="http://www.w3.org/2000/svg" version="1.1" viewBox="0 0 1920 1080">
  <!-- Generator: Adobe Illustrator 30.0.0, SVG Export Plug-In . SVG Version: 2.1.1 Build 123)  -->
  <defs>
    <style>
      .st0 {
        fill: #f5efe3;
      }

      .st1 {
        fill: #e3dfff;
      }

      .st2 {
        fill: #d3bddc;
      }
    </style>
  </defs>
  <path class="st2" d="M1920.016,922.725c-94.934,10.723-126.172,32.17-240-33.702s-196.551-116.426-354.338-96.511-180.766,76.596-281.872,78.128-133.301-39.618-196.085-41.362c-165.447-4.596-295.749,150.244-416.697,146.042-191.023-6.637-267.388,71.733-352.324,62.299-41.378-4.596-78.683-6.128-78.683-6.128v48.509h1920v-157.275Z"/>
  <path class="st1" d="M522.922,856.853c-119.489.124-215.984,61.277-292.58,94.979s-133.277,27.574-230.342,27.574v100.594h1920s-13.362-60.637-27.546-74.551c-27.264-26.746-70.468-24.511-151.66-18.383s-606.569,3.064-674.043,3.064c-119.489,0-418.229-133.407-543.83-133.277Z"/>
  <path class="st0" d="M112.385,1051.406c-35.232-.419-112.369-10.723-112.369-10.723v39.317h1919.984l.016-147.147c-75.064,9.191-104.127,29.637-168.468,25.041s-214.468-90.383-338.553-87.319-274.213,148.661-405.957,150.193-252.753-86.707-346.213-86.707c-176.17,0-419.759,118.877-548.44,117.346Z"/>
</svg>