<?xml version="1.0" encoding="UTF-8"?>
<svg id="_レイヤー_2" data-name="レイヤー 2" xmlns="http://www.w3.org/2000/svg" xmlns:xlink="http://www.w3.org/1999/xlink" viewBox="0 0 1920 295.798">
  <defs>
    <style>
      .cls-1 {
        fill: url(#_名称未設定グラデーション);
      }

      .cls-2 {
        fill: #e3dfff;
      }

      .cls-3 {
        fill: #d3bddc;
      }
    </style>
    <linearGradient id="_名称未設定グラデーション" data-name="名称未設定グラデーション" x1="960" y1="232.762" x2="960" y2="-38.844" gradientTransform="translate(0 256.954) scale(1 -1)" gradientUnits="userSpaceOnUse">
      <stop offset="0" stop-color="#d4b0de"/>
      <stop offset="1" stop-color="#b69bc8"/>
    </linearGradient>
  </defs>
  <g id="_レイヤー_1-2" data-name=" レイヤー 1">
    <path class="cls-2" d="M0,195.332C245.394,184.699,340.373,4.715,519.607.119c176.219-4.518,303.319,121.021,533.106,110.298s272.681,98.043,409.021,116.426,376.851,68.955,376.851,68.955L0,288.798v-93.466Z"/>
    <path class="cls-3" d="M336.884,288.798c93.447-70.487,93.467-172.841,242.043-175.317,91.915-1.532,82.723,50.178,182.298,46.536s237.447-113.94,378.383-113.94,493.277,249.721,493.277,249.721h0l-1296.001-7"/>
    <path class="cls-1" d="M0,232.097c282.16,1.532,427.692-54.277,519.607-49.681,91.915,4.596,156.255,102.638,205.277,102.638s144-142.468,303.319-142.468,137.872,42.894,232.851,35.234S1428.032,30.756,1542.926,24.629s178.148,54.277,377.074,52.745v218.424H0v-63.7h0Z"/>
  </g>
</svg>